<?xml version="1.0" encoding="UTF-8"?>
<!DOCTYPE svg PUBLIC "-//W3C//DTD SVG 1.1//EN" "http://www.w3.org/Graphics/SVG/1.1/DTD/svg11.dtd">
<!-- Creator: CorelDRAW -->
<svg xmlns="http://www.w3.org/2000/svg" xml:space="preserve" width="210mm" height="297mm" style="shape-rendering:geometricPrecision; text-rendering:geometricPrecision; image-rendering:optimizeQuality; fill-rule:evenodd; clip-rule:evenodd"
viewBox="0 0 210 297"
 xmlns:xlink="http://www.w3.org/1999/xlink">
 <defs>
  <style type="text/css">
   <!-- <![CDATA[ -->
    .fil0 {fill:#BED600}
    .fil1 {fill:black;fill-rule:nonzero}
   <!-- ]]> -->
  </style>
 </defs>
 <g id="Vrstva_x0020_1">
  <metadata id="CorelCorpID_0Corel-Layer"/>
  <g id="_185638520">
   <path id="_116586008" class="fil0" d="M63.2778 87.221l42.3647 -42.3647c2.0122,-2.0122 5.3354,-1.9819 7.3848,0.0675l5.1799 5.1799c-1.8441,1.0299 -3.5787,2.3274 -5.1459,3.8945l-14.8632 14.8632 7.2453 7.2453 -19.0909 19.0909 0 0.0001c-1.7146,1.7146 -1.7146,4.4955 0,6.2101 1.7146,1.7147 4.4955,1.7147 6.2102,0.0001l0.0001 0 19.0908 -19.0909 6.2103 6.2102 -19.0909 19.0909 0 0c-1.7146,1.7147 -1.7146,4.4956 0,6.2102 1.7146,1.7147 4.4955,1.7147 6.2102,0.0001l0.0001 0 19.0908 -19.0909 7.2453 7.2453 14.8632 -14.8632c1.5672,-1.5672 2.8647,-3.3019 3.8946,-5.1458l5.1798 5.1798c2.0494,2.0493 2.0798,5.3725 0.0675,7.3847l-42.3647 42.3648c-2.0123,2.0122 -5.3354,1.9818 -7.3848,-0.0676l-42.2297 -42.2297c-2.0494,-2.0494 -2.0798,-5.3725 -0.0675,-7.3848z"/>
   <path id="_116585816" class="fil1" d="M20.6704 179.953c0.5822,-1.4243 1.3619,-2.5886 2.3391,-3.4619 0.9773,-0.8837 2.152,-1.5282 3.5347,-1.9337 1.3931,-0.4054 2.9837,-0.603 4.7926,-0.5926 1.7985,0 3.3164,0.2495 4.5535,0.7381 1.2371,0.4783 2.1416,1.1644 2.7342,2.0585 0.5822,0.894 0.7901,1.9544 0.6341,3.1916l-18.5882 0zm15.2199 11.0406c-0.6965,0.707 -1.4658,1.2788 -2.3079,1.7154 -0.8317,0.447 -1.7778,0.7693 -2.8278,0.9772 -1.05,0.1976 -2.2455,0.3015 -3.597,0.3015 -1.705,-0.0104 -3.1188,-0.2183 -4.2416,-0.6238 -1.1124,-0.4054 -1.9857,-0.9148 -2.599,-1.549 -0.6134,-0.6341 -1.0085,-1.3099 -1.206,-2.0168 -0.1871,-0.6966 -0.2079,-1.3619 -0.0624,-1.9857l34.3072 0c0.7589,-3.3995 1.0084,-6.3416 0.7277,-8.8367 -0.2807,-2.495 -1.0188,-4.595 -2.1936,-6.2896 -1.1851,-1.705 -2.7446,-3.0668 -4.6782,-4.0857 -1.9441,-1.0188 -4.1897,-1.7569 -6.7471,-2.2039 -2.5574,-0.4575 -5.3436,-0.6758 -8.3793,-0.6654 -3.8465,0 -7.35,0.4055 -10.5312,1.2164 -3.1812,0.8109 -5.9882,1.996 -8.4105,3.5658 -2.4326,1.5594 -4.4287,3.4827 -5.9985,5.7699 -1.5802,2.2767 -2.6822,4.8965 -3.3164,7.849 -0.8524,4.1585 -0.5717,7.5996 0.8525,10.3337 1.4243,2.7342 3.909,4.7718 7.4436,6.1129 3.5451,1.3515 8.057,2.0169 13.5358,2.0169 3.5762,-0.0104 6.7886,-0.2807 9.6371,-0.8109 2.8486,-0.5406 5.3748,-1.3099 7.5788,-2.3079 2.2144,-1.0085 4.1272,-2.2248 5.7386,-3.6595 1.6114,-1.4346 2.9006,-3.0356 3.8674,-4.8238l-16.5922 0zm12.6624 22.0814c0.6134,0.0831 1.3411,0.1559 2.204,0.2079 0.8525,0.052 1.7881,0.0935 2.8069,0.1247 1.0189,0.0312 2.0689,0.0416 3.1605,0.0416 1.7465,0.0104 3.3579,-0.0624 4.8341,-0.2287 1.4867,-0.1559 2.8382,-0.4782 4.0545,-0.946 1.2164,-0.4679 2.308,-1.1644 3.2748,-2.0897 0.9668,-0.9148 1.8089,-2.1208 2.5158,-3.6282 0.7174,-1.497 1.31,-3.3579 1.7882,-5.5827l7.1733 -33.8705 -15.5942 0 -6.6743 31.4378c-0.1767,0.8525 -0.3846,1.5282 -0.6029,2.0272 -0.2184,0.4991 -0.4886,0.8629 -0.8109,1.102 -0.3119,0.2391 -0.7174,0.3847 -1.1956,0.4575 -0.4678,0.0727 -1.0604,0.1039 -1.7569,0.0935l-2.8693 0 -2.308 10.8536zm16.9665 -49.3399l15.5941 0 1.8089 -8.608 -15.5941 0 -1.8089 8.608zm33.1843 20.3971c0.5718,-2.6926 1.7362,-4.751 3.4723,-6.1649 1.7362,-1.4138 4.1584,-2.1208 7.2565,-2.1312 2.0896,0 3.7322,0.3223 4.9069,0.9565 1.1852,0.6341 1.9441,1.5698 2.2872,2.8069 0.3535,1.2268 0.3223,2.7446 -0.0832,4.5327 -0.3638,1.8297 -0.9876,3.3683 -1.8609,4.6055 -0.8733,1.2371 -2.0376,2.1728 -3.4931,2.8069 -1.445,0.6342 -3.2124,0.9461 -5.3124,0.9461 -2.0688,0 -3.701,-0.3119 -4.8861,-0.9461 -1.1748,-0.6341 -1.9441,-1.5698 -2.308,-2.8069 -0.3638,-1.2372 -0.3638,-2.7758 0.0208,-4.6055zm-16.3427 0c-0.9044,4.1896 -0.7589,7.6515 0.4263,10.3857 1.1955,2.7342 3.5139,4.7614 6.9654,6.0921 3.4411,1.3307 8.0881,1.9857 13.9411,1.9857 5.853,0 10.7808,-0.655 14.7937,-1.9857 4.0129,-1.3307 7.1941,-3.3579 9.5436,-6.0921 2.3599,-2.7342 3.9817,-6.1961 4.855,-10.3857 0.9044,-4.1792 0.7693,-7.6203 -0.4263,-10.3441 -1.1955,-2.7238 -3.5138,-4.7406 -6.9653,-6.0713 -3.4412,-1.3307 -8.0882,-1.9961 -13.9412,-1.9857 -5.8426,-0.0104 -10.7808,0.655 -14.7937,1.9857 -4.0025,1.3307 -7.1941,3.3475 -9.5436,6.0713 -2.3599,2.7238 -3.9713,6.1649 -4.855,10.3441zm52.5211 17.0912l15.5941 0 7.2357 -34.12 -15.5941 0 -7.2357 34.12zm7.9842 -37.4883l15.5942 0 1.8089 -8.608 -15.5942 0 -1.8089 8.608zm15.0951 37.4883l15.5941 0 3.3684 -15.7189c0.4054,-1.8921 1.05,-3.4307 1.9233,-4.6263 0.8836,-1.1955 1.9128,-2.0792 3.1188,-2.6406 1.2059,-0.5718 2.4951,-0.8525 3.8777,-0.8421 1.2372,0 2.256,0.208 3.0565,0.6446 0.8109,0.4366 1.3515,1.102 1.6426,2.0168 0.2911,0.9149 0.2911,2.0793 -0.0208,3.5139l-3.7426 17.6526 15.5941 0 4.6159 -21.7071c0.4886,-2.3703 0.5302,-4.3975 0.1352,-6.0817 -0.3951,-1.6945 -1.1644,-3.0772 -2.2976,-4.148 -1.1436,-1.0708 -2.5678,-1.8609 -4.2936,-2.3703 -1.7257,-0.499 -3.6698,-0.7485 -5.8322,-0.7485 -1.8713,0.0103 -3.6178,0.1767 -5.2396,0.499 -1.6114,0.3222 -3.0669,0.7485 -4.3768,1.2683 -1.2995,0.5198 -2.4223,1.0812 -3.3579,1.6842 -0.9357,0.5925 -1.6634,1.1643 -2.1832,1.7257l-0.1248 0 0.8733 -4.2416 -15.0951 0 -7.2357 34.12z"/>
  </g>
 </g>
</svg>
